<svg width="243" height="59" viewBox="0 0 243 59" fill="none" xmlns="http://www.w3.org/2000/svg">
<g clip-path="url(#clip0)">
<path d="M-0.100098 6.11011H23.8099C30.4399 6.11011 35.5199 7.88011 39.0499 11.4101C42.0399 14.4001 43.5299 18.3901 43.5299 23.3701V23.5201C43.5299 27.7501 42.4999 31.2101 40.4299 33.8701C38.3599 36.5401 35.6599 38.4901 32.3199 39.7401L45.0999 58.4201H31.6599L20.4499 41.6801H20.2999H11.4099V58.4201H-0.100098V6.11011ZM23.0699 31.5201C25.9099 31.5201 28.0899 30.8501 29.6099 29.5001C31.1299 28.1601 31.8899 26.3601 31.8899 24.1201V23.9701C31.8899 21.4801 31.0899 19.6101 29.4999 18.3601C27.9099 17.1201 25.6899 16.4901 22.8499 16.4901H11.4099V31.5101H23.0699V31.5201Z" fill="white"/>
<path d="M53.9297 6.11011H65.4397V28.9801L86.6597 6.11011H100.56L79.2597 28.3001L101.53 58.4201H87.7097L71.4897 36.1501L65.4397 42.4301V58.4201H53.9297V6.11011V6.11011Z" fill="white"/>
<path d="M176.19 59.1701C172.2 59.1701 168.29 58.4901 164.46 57.1101C160.62 55.7401 157.14 53.6401 154 50.8001L160.8 42.6501C163.19 44.5901 165.64 46.1401 168.16 47.2801C170.67 48.4301 173.43 49.0001 176.42 49.0001C178.81 49.0001 180.67 48.5701 181.99 47.6901C183.31 46.8201 183.97 45.6101 183.97 44.0701V43.9201C183.97 43.1701 183.83 42.5101 183.56 41.9401C183.28 41.3701 182.76 40.8301 181.99 40.3301C181.22 39.8301 180.14 39.3301 178.77 38.8401C177.4 38.3401 175.61 37.8201 173.41 37.2701C170.76 36.6201 168.36 35.9001 166.22 35.1001C164.07 34.3001 162.25 33.3201 160.75 32.1501C159.25 30.9801 158.09 29.5201 157.27 27.7801C156.45 26.0401 156.03 23.8701 156.03 21.2801V21.1301C156.03 18.7401 156.48 16.5801 157.37 14.6701C158.26 12.7501 159.51 11.1001 161.12 9.70012C162.73 8.31012 164.65 7.23013 166.88 6.49013C169.11 5.74013 171.58 5.37012 174.27 5.37012C178.11 5.37012 181.63 5.94012 184.84 7.09012C188.05 8.24012 191 9.88013 193.69 12.0201L187.71 20.6901C185.37 19.1001 183.08 17.8401 180.84 16.9201C178.6 16.0001 176.36 15.5401 174.11 15.5401C171.87 15.5401 170.19 15.9801 169.07 16.8501C167.95 17.7201 167.39 18.8101 167.39 20.1001V20.2501C167.39 21.1001 167.55 21.8301 167.88 22.4501C168.21 23.0701 168.79 23.6301 169.64 24.1301C170.49 24.6301 171.65 25.1001 173.12 25.5501C174.59 26.0001 176.45 26.5201 178.7 27.1201C181.35 27.8201 183.71 28.6001 185.78 29.4701C187.85 30.3401 189.6 31.3901 191.02 32.6101C192.44 33.8301 193.52 35.2601 194.24 36.9101C194.96 38.5601 195.33 40.5201 195.33 42.8101V42.9601C195.33 45.5501 194.86 47.8501 193.92 49.8701C192.98 51.8901 191.67 53.5801 189.98 54.9501C188.3 56.3201 186.29 57.3701 183.96 58.0901C181.62 58.8101 179.03 59.1701 176.19 59.1701Z" fill="white"/>
<path d="M216.07 16.7201H200.15V6.11011H243.49V16.7201H227.57V58.4201H216.06V16.7201H216.07Z" fill="white"/>
<path d="M117.69 27.0801L114.04 17.2401H101.34L105.28 27.0801H117.69Z" fill="white"/>
<path d="M145.83 -2.67993L123.36 42.9501L119.71 33.1301H107.82L118.13 58.7901H128.29L158.23 -2.67993H145.83Z" fill="#00AEEF"/>
</g>
<defs>
<clipPath id="clip0">
<rect width="243" height="59" fill="white"/>
</clipPath>
</defs>
</svg>
